<svg id="joget_logo" data-name="joget logo" xmlns="http://www.w3.org/2000/svg" xmlns:xlink="http://www.w3.org/1999/xlink" width="107.744" height="29.72" viewBox="0 0 107.744 29.72">
  <defs>
    <clipPath id="clip-path">
      <rect id="Rectangle_323" data-name="Rectangle 323" width="107.744" height="29.72" fill="none"/>
    </clipPath>
  </defs>
  <g id="Group_1416" data-name="Group 1416" transform="translate(0 0)" clip-path="url(#clip-path)">
    <path id="Path_569" data-name="Path 569" d="M103.881,29.394c0,2.03-.886,3.045-2.61,3.045a4.079,4.079,0,0,1-3.328-1.889l-1.771,2.1a6.355,6.355,0,0,0,5.171,2.384c3.687,0,5.65-1.912,5.65-5.807V18.276l-3.112-.01Z" transform="translate(-60.328 -11.554)" fill="#fff"/>
    <path id="Path_570" data-name="Path 570" d="M140.1,28.571c-3.926,0-6.8,2.668-6.8,6.445s2.873,6.467,6.8,6.467c3.975,0,6.823-2.691,6.823-6.467s-2.849-6.445-6.823-6.445m0,10.386a3.689,3.689,0,0,1-3.783-3.942,3.8,3.8,0,1,1,7.589,0,3.7,3.7,0,0,1-3.806,3.942" transform="translate(-83.619 -18.073)" fill="#fff"/>
    <path id="Path_571" data-name="Path 571" d="M185.628,30.389a5.574,5.574,0,0,0-4.43-1.817c-3.663,0-6.464,2.407-6.464,6.066s2.8,6.114,6.464,6.114a5.668,5.668,0,0,0,4.286-1.676v.661c0,2.549-1.245,3.824-4.07,3.824A7.8,7.8,0,0,1,176.7,42.05l-1.341,2.219a10.264,10.264,0,0,0,6.225,1.794c4.477,0,6.9-2.077,6.9-6.657V28.713h-2.849Zm-3.975,7.861a3.6,3.6,0,1,1,3.879-3.612,3.6,3.6,0,0,1-3.879,3.612" transform="translate(-109.611 -18.073)" fill="#fff"/>
    <path id="Path_572" data-name="Path 572" d="M225.923,28.573a6.315,6.315,0,0,0-6.609,6.444c0,3.753,2.777,6.467,7.063,6.467a6.523,6.523,0,0,0,5.147-2.054l-1.6-1.817a4.616,4.616,0,0,1-3.471,1.369c-2.227,0-3.783-1.18-4.143-3.021h10.032c.025-.283.048-.638.048-.873a6.19,6.19,0,0,0-6.464-6.514M222.283,34a3.519,3.519,0,0,1,3.639-3.069A3.466,3.466,0,0,1,229.538,34Z" transform="translate(-137.575 -18.074)" fill="#fff"/>
    <path id="Path_573" data-name="Path 573" d="M264.409,34.5a1.646,1.646,0,0,1-1.772-1.888v-6h3.424v-2.36h-3.424v-2.88h-2.993v2.88h-2.107v2.36h2.107v6.067c0,2.785,1.6,4.248,4.405,4.248a4.752,4.752,0,0,0,2.873-.85l-.838-2.1a2.717,2.717,0,0,1-1.676.519" transform="translate(-161.552 -13.522)" fill="#fff"/>
    <path id="Path_574" data-name="Path 574" d="M43.277,33.817a6.41,6.41,0,0,1-1.048.377c-.115.034-.367.032-.41-.093-.012-.069-.028-.1.151-.247.3-.25,1.966-1.308,2.6-1.669s1.588-.74,2.24-1.044c.2-.095.223-.211.076-.38a1.075,1.075,0,0,0-.335-.252,2.138,2.138,0,0,0-.74-.212,3.428,3.428,0,0,0-1.65.28,17.672,17.672,0,0,0-2.531,1.317,27.665,27.665,0,0,1-3.865,1.925c-.412.157-.833.289-1.25.434a.188.188,0,0,0,.01.042l.225.009,5.577.182c1.337.044,2.675.1,4.012.128a2.594,2.594,0,0,0,1.355-.148c.775-.407,1.589-.744,2.406-1.089.255-.108.3-.231.143-.458a1.346,1.346,0,0,0-.379-.352,2.65,2.65,0,0,0-.883-.352,4.243,4.243,0,0,0-2.065.139,24.8,24.8,0,0,0-3.637,1.465" transform="translate(-22.905 -19.153)" fill="#fff"/>
    <path id="Path_575" data-name="Path 575" d="M15.073,0A14.967,14.967,0,0,0,0,14.86,14.968,14.968,0,0,0,15.073,29.72,14.968,14.968,0,0,0,30.146,14.86,14.967,14.967,0,0,0,15.073,0m0,28.454q-.565,0-1.118-.044c-.082.006-.219-.16-.387-.427h0a20.045,20.045,0,0,1-1.606-3.028,3.657,3.657,0,0,1-.266-1,1.821,1.821,0,0,1,.694-1.583,6.273,6.273,0,0,1,2.749-1.293,25.428,25.428,0,0,1,4.945-.64c2.108-.1,4.22-.128,6.33-.183.289-.008.583-.005.884,0h0l.434,0a13.8,13.8,0,0,1-12.663,8.2M28.732,16.732l-.4-.007c-.5,0-.994.006-1.492,0-.934-.015-1.868-.043-2.8-.064-2.575-.057-5.148-.108-7.723-.168-1.152-.027-2.306-.05-3.456-.115-2.794-.229-3.783-1.043-3.14-2.385a5.226,5.226,0,0,1,1.208-1.426,16.3,16.3,0,0,1,3.192-2.172c.234-.148.445-.249.626-.347.442-.213.806-.414.806-.872a.923.923,0,0,0-.893-.88A13.577,13.577,0,0,0,4.584,11.819a11.77,11.77,0,0,0-2.875,4.849l-.2.647a13.458,13.458,0,0,1-.224-2.455A13.693,13.693,0,0,1,15.073,1.265,13.693,13.693,0,0,1,28.862,14.86a13.554,13.554,0,0,1-.13,1.872" transform="translate(0 0)" fill="#fff"/>
    <path id="Path_576" data-name="Path 576" d="M284.745,17.272a1.2,1.2,0,0,1-1.681,0,1.165,1.165,0,0,1,0-1.658,1.2,1.2,0,0,1,1.678,0,1.116,1.116,0,0,1,.348.827,1.128,1.128,0,0,1-.348.831m-1.563-1.543a.967.967,0,0,0-.3.713.978.978,0,0,0,.3.718,1.029,1.029,0,0,0,1.447,0,1.009,1.009,0,0,0,0-1.431,1.028,1.028,0,0,0-1.445,0m.7.065a1.008,1.008,0,0,1,.356.046.32.32,0,0,1,.2.326.281.281,0,0,1-.128.254.5.5,0,0,1-.188.062.319.319,0,0,1,.224.126.35.35,0,0,1,.071.2V16.9c0,.03,0,.061,0,.1a.192.192,0,0,0,.012.067l.008.017h-.215l0-.013,0-.014,0-.041v-.1a.312.312,0,0,0-.123-.294.547.547,0,0,0-.255-.042h-.181v.506h-.23V15.795Zm.248.2a.607.607,0,0,0-.278-.047h-.2v.466h.208a.646.646,0,0,0,.219-.029.2.2,0,0,0,.135-.2.2.2,0,0,0-.087-.188" transform="translate(-177.349 -9.661)" fill="#fff"/>
  </g>
</svg>
